<svg xmlns="http://www.w3.org/2000/svg" width="159" height="50" viewBox="0 0 159 50" fill="none"><path d="M74.05 35.3C68.14 35.3 65.41 32.9 65.41 28.46V28.07H69.82V28.37C69.82 30.59 70.63 31.22 74.26 31.22C76.81 31.22 77.44 30.71 77.44 29.36C77.44 28.01 77.14 27.53 74.32 27.05L70.78 26.42C66.94 25.76 65.32 23.81 65.32 20.69C65.32 17.63 67.57 14.6 73.33 14.6C79.06 14.6 81.46 17.57 81.46 21.56V21.8H77.02V21.47C77.02 19.37 76.15 18.68 73.18 18.68C70.6 18.68 69.79 19.25 69.79 20.51C69.79 21.8 70.33 22.1 72.67 22.55L76.24 23.24C80.47 24.05 81.91 26.27 81.91 29.21C81.91 32.42 79.75 35.3 74.05 35.3ZM89.4742 35.3C85.5142 35.3 83.8642 32.69 83.8642 29.48V19.91H88.3342V28.58C88.3342 30.68 89.0542 31.43 91.3042 31.43C93.4642 31.43 94.3942 30.74 94.3942 28.46V19.91H98.8642V35H94.6942V32.36H94.5442C93.7042 34.1 92.1142 35.3 89.4742 35.3ZM106.09 35H101.62V19.91H105.79V22.55H105.97C106.78 20.84 108.4 19.61 111.04 19.61C114.97 19.61 116.65 22.22 116.65 25.43V35H112.15V26.33C112.15 24.23 111.46 23.48 109.18 23.48C107.02 23.48 106.09 24.17 106.09 26.45V35ZM126.218 35.3C121.028 35.3 118.658 32.27 118.658 27.5C118.658 22.67 121.538 19.61 126.248 19.61C130.778 19.61 133.448 22.31 133.448 26.24C133.448 27.08 133.328 27.95 133.238 28.46H122.888C122.978 30.56 123.818 31.4 126.278 31.4C128.078 31.4 128.858 31.01 128.858 30.08V29.9H133.298V30.2C133.298 33.41 130.538 35.3 126.218 35.3ZM126.098 23.3C123.938 23.3 123.098 24.14 122.918 25.73H129.128C129.218 24.17 128.198 23.3 126.098 23.3ZM138.444 35H133.404L138.414 27.5V27.23L133.404 19.91H138.594L141.834 24.95H142.104L145.254 19.91H150.294L145.284 27.41V27.71L150.294 35H145.074L141.864 29.99H141.564L138.444 35Z" fill="#001A29"></path><path d="M157.202 35H151.562V29.69H157.202V35Z" fill="#4AAB3D"></path><circle cx="25" cy="25" r="25" fill="#4AAB3D"></circle><path d="M24.3467 12L17.5125 24.1121H22.3367L15 42L32.3869 21.0527H28.4837L35 12H24.3467Z" fill="white"></path></svg>